<svg width="71" height="79" viewBox="0 0 71 79" fill="none" xmlns="http://www.w3.org/2000/svg">
<path d="M40.2921 57.7518H29.9916C29.5027 57.7518 29.0337 57.5575 28.6879 57.2118C28.3421 56.866 28.1479 56.397 28.1479 55.908C28.1479 55.419 28.3421 54.9501 28.6879 54.6043C29.0337 54.2585 29.5027 54.0643 29.9916 54.0643H40.2921C40.7811 54.0643 41.25 54.2585 41.5958 54.6043C41.9416 54.9501 42.1358 55.419 42.1358 55.908C42.1358 56.397 41.9416 56.866 41.5958 57.2118C41.25 57.5575 40.7811 57.7518 40.2921 57.7518Z" fill="#6C01D6"/>
<path d="M47.2246 56.9405C46.9982 56.9354 46.774 56.8939 46.5608 56.8176C46.3258 56.7311 46.1109 56.5977 45.9292 56.4254C45.7475 56.2532 45.6028 56.0457 45.5038 55.8157C45.4049 55.5857 45.3539 55.3379 45.3539 55.0875C45.3539 54.8371 45.4049 54.5893 45.5037 54.3593L51.3546 38.798C51.4211 38.5502 51.5386 38.3189 51.6996 38.1191C51.8606 37.9193 52.0616 37.7552 52.2896 37.6375C52.5177 37.5198 52.7678 37.451 53.024 37.4355C53.2801 37.42 53.5367 37.4582 53.7773 37.5475C54.0179 37.6369 54.2371 37.7755 54.4211 37.9544C54.605 38.1334 54.7495 38.3488 54.8455 38.5868C54.9414 38.8249 54.9865 39.0803 54.9781 39.3368C54.9696 39.5933 54.9077 39.8452 54.7962 40.0764L48.9454 55.6622C48.8276 56.0281 48.5984 56.348 48.2899 56.5772C47.9813 56.8064 47.6088 56.9334 47.2246 56.9405Z" fill="#6C01D6"/>
<path d="M22.125 57.4568C21.7395 57.4565 21.3638 57.3354 21.0507 57.1105C20.7376 56.8856 20.5029 56.5683 20.3796 56.203L12.8079 33.1685H5.92456C5.43557 33.1685 4.9666 32.9742 4.62083 32.6284C4.27506 32.2827 4.08081 31.8137 4.08081 31.3247C4.08081 30.8357 4.27506 30.3667 4.62083 30.021C4.9666 29.6752 5.43557 29.481 5.92456 29.481H14.1354C14.5239 29.483 14.9019 29.6076 15.2153 29.8372C15.5288 30.0668 15.7617 30.3895 15.8808 30.7593L23.9687 55.023C24.0655 55.2594 24.1121 55.5132 24.1057 55.7685C24.0992 56.0238 24.0398 56.275 23.9312 56.5061C23.8225 56.7372 23.6671 56.9432 23.4747 57.1111C23.2822 57.279 23.057 57.4051 22.8133 57.4814C22.5847 57.5218 22.3501 57.5134 22.125 57.4568Z" fill="#6C01D6"/>
<path d="M25.9108 68.5193C24.3306 68.5193 22.7859 68.0507 21.472 67.1728C20.1582 66.2949 19.1341 65.0471 18.5294 63.5872C17.9247 62.1273 17.7665 60.5208 18.0747 58.971C18.383 57.4212 19.144 55.9976 20.2613 54.8802C21.3787 53.7629 22.8023 53.0019 24.3521 52.6936C25.9019 52.3854 27.5084 52.5436 28.9683 53.1483C30.4282 53.753 31.676 54.7771 32.5539 56.0909C33.4318 57.4048 33.9004 58.9495 33.9004 60.5297C33.8939 62.6467 33.0501 64.6751 31.5531 66.172C30.0562 67.669 28.0278 68.5128 25.9108 68.5193ZM25.9108 56.2276C25.0599 56.2276 24.2282 56.4799 23.5207 56.9527C22.8132 57.4254 22.2618 58.0973 21.9362 58.8834C21.6106 59.6695 21.5254 60.5345 21.6914 61.369C21.8574 62.2035 22.2671 62.9701 22.8688 63.5717C23.4704 64.1734 24.237 64.5831 25.0715 64.7491C25.906 64.9151 26.771 64.8299 27.5571 64.5043C28.3432 64.1787 29.0151 63.6273 29.4879 62.9198C29.9606 62.2123 30.2129 61.3806 30.2129 60.5297C30.2129 59.3887 29.7596 58.2945 28.9528 57.4877C28.146 56.6809 27.0518 56.2276 25.9108 56.2276Z" fill="#6C01D6"/>
<path d="M44.3729 68.5193C42.7927 68.5193 41.248 68.0507 39.9341 67.1728C38.6202 66.2949 37.5962 65.0471 36.9915 63.5872C36.3868 62.1273 36.2286 60.5208 36.5368 58.971C36.8451 57.4212 37.606 55.9976 38.7234 54.8802C39.8408 53.7629 41.2644 53.0019 42.8142 52.6936C44.364 52.3854 45.9705 52.5436 47.4304 53.1483C48.8903 53.753 50.1381 54.7771 51.016 56.0909C51.8939 57.4048 52.3625 58.9495 52.3625 60.5297C52.356 62.6467 51.5122 64.6751 50.0152 66.172C48.5183 67.669 46.4899 68.5128 44.3729 68.5193ZM44.3729 56.2276C43.522 56.2276 42.6903 56.4799 41.9828 56.9527C41.2753 57.4254 40.7239 58.0973 40.3983 58.8834C40.0727 59.6695 39.9875 60.5345 40.1535 61.369C40.3195 62.2035 40.7292 62.9701 41.3309 63.5717C41.9325 64.1734 42.6991 64.5831 43.5336 64.7491C44.3681 64.9151 45.2331 64.8299 46.0192 64.5043C46.8053 64.1787 47.4772 63.6273 47.9499 62.9198C48.4227 62.2123 48.675 61.3806 48.675 60.5297C48.675 59.3887 48.2217 58.2945 47.4149 57.4877C46.6081 56.6809 45.5139 56.2276 44.3729 56.2276Z" fill="#6C01D6"/>
<g clip-path="url(#clip0_115_3244)">
<path d="M56.2167 34.8911C52.0031 38.2382 46.687 36.0675 44.597 34.9739L40.0457 38.5892C40.6847 40.9311 41.5497 46.5418 37.336 49.8888C31.6248 54.4255 27.8112 49.6245 26.1902 47.5838C24.2193 45.1026 21.9906 34.1578 21.6172 32.0598C21.5957 31.8138 21.6386 31.5664 21.7415 31.3419C21.8444 31.1174 22.0039 30.9235 22.2044 30.7793L41.0264 15.8282C41.2306 15.668 41.4747 15.5666 41.7323 15.535C41.9899 15.5034 42.2513 15.5427 42.4882 15.6488C44.4472 16.4872 54.6156 21.149 56.5749 23.6156C58.161 25.6123 61.9279 30.3545 56.2167 34.8911ZM37.5942 37.0405L43.6431 32.2356C43.8722 32.0502 44.1544 31.9426 44.4487 31.9284C44.7431 31.9141 45.0343 31.994 45.2803 32.1563C45.2803 32.1563 50.8436 35.6632 54.514 32.7476C57.7734 30.1586 56.4952 28.037 54.3377 25.3209C53.2647 23.9702 46.7725 20.6504 42.0537 18.5082L24.5824 32.3863C25.6015 37.4675 27.3662 44.5425 28.4391 45.8932C30.5966 48.6093 32.374 50.3343 35.6333 47.7453C39.3037 44.8297 37.1669 38.673 37.1466 38.6173C37.0441 38.341 37.0322 38.0392 37.1127 37.7557C37.1932 37.4722 37.3618 37.2217 37.5942 37.0405Z" fill="#360077"/>
<path d="M33.3181 25.4473C33.0618 25.6526 32.7416 25.7618 32.4133 25.7559C32.0849 25.7499 31.7689 25.6292 31.5202 25.4147C30.6212 24.5835 29.897 23.5814 29.39 22.4669C28.883 21.3524 28.6034 20.148 28.5675 18.9242C28.6928 17.4488 29.1493 16.0206 29.9031 14.7461C30.6568 13.4716 31.6884 12.3835 32.921 11.5629C33.0656 11.4481 33.2314 11.3628 33.409 11.312C33.5865 11.2612 33.7723 11.2459 33.9558 11.267C34.1393 11.288 34.3168 11.3449 34.4783 11.4346C34.6397 11.5242 34.7819 11.6448 34.8968 11.7894C35.0117 11.934 35.0969 12.0998 35.1477 12.2774C35.1985 12.4549 35.2138 12.6407 35.1928 12.8242C35.1718 13.0077 35.1148 13.1852 35.0252 13.3467C34.9355 13.5081 34.815 13.6503 34.6704 13.7652C33.7749 14.3388 33.0161 15.1018 32.4473 16.0004C31.8786 16.899 31.5138 17.9113 31.3785 18.9661C31.4627 20.612 32.179 22.1618 33.3782 23.2923C33.5169 23.4148 33.63 23.5636 33.7111 23.73C33.7922 23.8964 33.8396 24.0771 33.8507 24.2619C33.8617 24.4467 33.8362 24.6318 33.7755 24.8067C33.7149 24.9815 33.6203 25.1427 33.4973 25.281L33.3181 25.4473Z" fill="#360077"/>
</g>
<path d="M34.488 39.3903C34.3288 39.5143 34.127 39.57 33.9268 39.5452C33.7266 39.5203 33.5445 39.4169 33.4205 39.2578L30.3816 35.3578C30.2576 35.1987 30.2019 34.9968 30.2268 34.7966C30.2516 34.5964 30.355 34.4143 30.5141 34.2903C30.6732 34.1663 30.8751 34.1106 31.0753 34.1354C31.2755 34.1603 31.4576 34.2636 31.5816 34.4228L34.6205 38.3228C34.7445 38.4819 34.8002 38.6838 34.7753 38.884C34.7505 39.0842 34.6471 39.2663 34.488 39.3903Z" fill="#6C01D6"/>
<path d="M34.9079 35.9195L31.0079 38.9584C30.8487 39.0824 30.6469 39.1381 30.4467 39.1132C30.2465 39.0884 30.0643 38.985 29.9404 38.8259C29.8202 38.6653 29.7669 38.4645 29.7916 38.2655C29.8163 38.0664 29.9171 37.8847 30.0728 37.7584L33.9729 34.7195C34.1395 34.6094 34.3428 34.5693 34.5388 34.6078C34.7348 34.6464 34.9078 34.7604 35.0204 34.9254C35.125 35.0767 35.1713 35.2608 35.1506 35.4436C35.1299 35.6264 35.0437 35.7955 34.9079 35.9195Z" fill="#6C01D6"/>
<path d="M47.2507 29.4843C47.0902 29.6045 46.8893 29.6578 46.6903 29.6331C46.4913 29.6084 46.3095 29.5076 46.1832 29.3518L43.1444 25.4518C43.0204 25.2927 42.9647 25.0908 42.9895 24.8906C43.0144 24.6904 43.1177 24.5083 43.2769 24.3843C43.436 24.2603 43.6379 24.2046 43.8381 24.2294C44.0383 24.2543 44.2204 24.3576 44.3444 24.5168L47.3832 28.4168C47.5072 28.5759 47.5629 28.7778 47.5381 28.978C47.5132 29.1782 47.4099 29.3603 47.2507 29.4843Z" fill="#6C01D6"/>
<path d="M47.6826 26.0042L43.7826 29.043C43.6235 29.167 43.4216 29.2227 43.2214 29.1979C43.0212 29.173 42.8391 29.0697 42.7151 28.9105C42.5911 28.7514 42.5354 28.5495 42.5603 28.3493C42.5851 28.1492 42.6885 27.967 42.8476 27.843L46.7476 24.8042C46.9082 24.684 47.109 24.6307 47.3081 24.6554C47.5071 24.6801 47.6888 24.7809 47.8151 24.9367C47.9391 25.0958 47.9948 25.2977 47.97 25.4979C47.9451 25.6981 47.8418 25.8802 47.6826 26.0042Z" fill="#6C01D6"/>
<defs>
<clipPath id="clip0_115_3244">
<rect width="45" height="45" fill="white" transform="translate(7 28.4897) rotate(-38.4616)"/>
</clipPath>
</defs>
</svg>
